<svg xmlns="http://www.w3.org/2000/svg" viewBox="0 0 120 120" role="img" aria-labelledby="title desc">
  <title id="title">Algebra mark</title>
  <desc id="desc">Stylized Algebra symbol in a magenta and orange gradient.</desc>
  <defs>
    <linearGradient id="algebra-gradient" x1="19" y1="101" x2="92" y2="16" gradientUnits="userSpaceOnUse">
      <stop offset="0" stop-color="#f18800"/>
      <stop offset="0.46" stop-color="#df5736"/>
      <stop offset="1" stop-color="#c90065"/>
    </linearGradient>
  </defs>
  <path
    fill="url(#algebra-gradient)"
    fill-rule="evenodd"
    d="M35.4 86.9h21.1c1.4 5.6 5.1 9.8 11.2 12.4 8.5 3.6 21.5 4 39.2 1.3L96.2 72.4l-7.7 3.9 6.7 17.7c-11.3 1.1-19.9.6-25.8-1.5-5-1.8-7.7-4.8-8.1-8.8-.5-5.4 3.5-10.2 12-14.5 6.4-3.2 13.3-6.3 20.6-9.4 8.5-3.6 16.4-8.3 23.7-14.1l-3.7-8.4C103 45.5 91.3 52.2 78.7 57.2c-10.3 4.1-17.6 8.7-22 13.7-3.1 3.6-4.8 7.7-5.1 12.3H38.7L58.2 33c2.2-5.8 5.8-8.7 10.8-8.7 5.5 0 9.6 3.2 12.2 9.7l10.8 27 8.2-3.8L88.7 29.7C85.1 20.6 78.6 16 69.2 16c-8.8 0-15.1 4.6-18.8 13.7L25.2 94.8h28.5c-8-1.9-14.1-4.5-18.3-7.9Z"
  />
</svg>
